<?xml version="1.0" encoding="UTF-8"?>
<svg id="Capa_1" data-name="Capa 1" xmlns="http://www.w3.org/2000/svg" viewBox="0 0 1920.0851 558.5103">
  <path d="M0,267.9656c.8233-1.0359,1.9607-1.9495,2.4208-3.1268,4.2018-10.7501,10.767-14.6102,23.3819-13.9022,30.1981,1.695,60.5388,.7543,90.8187,1.1386,21.9233,.2782,43.8706-2.1492,65.7941,1.0226,4.8505,.7017,10.0351-1.1278,15.0872-1.5149,4.9406-.3785,7.08,1.9159,7.2942,7.1013,.5915,14.32-.6721,15.8419-15.4423,15.8695-32.1585,.0602-64.3311-.4703-96.4712,.3199-25.9349,.6377-51.7854,3.8829-77.8028,2.9988-5.1081-.1736-10.179-.2434-15.0805-1.884C0,273.3142,0,270.6399,0,267.9656Z" style="fill: #6a76ff;"/>
  <path d="M273.3668,0c10.2901,5.1136,10.8714,13.6356,10.7311,24.1422-.7017,52.564-1.6553,105.1458,.2954,157.7107,.0297,.8,.0953,1.5986,.1304,2.3984,.6292,14.3179-3.7469,17.7466-18.1557,14.609-3.6189-.7881-4.5972-3.0096-5.128-6.1412-1.3978-8.2461-.7778-16.4855-.2401-24.7431,.9193-14.1194,1.6634-28.2484-.2895-42.3449-1.1149-8.0476,1.0413-15.9277,.9926-23.946-.1669-27.4917,.2346-54.9876-.0353-82.4774-.0786-8.0074-.1619-15.344,8.483-19.2077h3.2161Z" style="fill: #6a76ff;"/>
  <path d="M1050.6181,359.7487c0,20.5894,.1693,41.1811-.1043,61.7669-.0808,6.0741,1.3909,9.9054,8.0982,10.129,.784,.0261,1.5515,.404,2.336,.5765,15.6817,3.4485,15.5143,3.4415,14.9663,19.2976-.195,5.6437-2.0198,8.0253-8.0528,8.0518-36.1554,.1589-72.3088,.689-108.4639,.9782-10.0903,.0807-10.6287-.6601-10.7209-11.1494-.1192-13.5716-.2036-14.0021,13.2845-16.6324,8.064-1.5726,10.7259-5.1384,10.6269-13.4275-.4442-37.1631-.211-74.3344-.1831-111.5027,.0064-8.5994-.7897-17.1181-3.3454-25.3241-3.2686-10.4947-9.7915-15.1201-20.7581-15.6701-15.2832-.7664-28.2304,4.9453-40.0357,14.0193-2.3041,1.771-3.1442,3.8263-3.1099,6.8593,.355,31.2793,.4322,62.5616,.771,93.8411,.1532,14.1518,.8847,28.2977,1.0122,42.4493,.0473,5.2583,2.1469,8.0114,7.2715,8.6213,.2659,.0316,.5324,.0683,.7938,.1253,15.1871,3.3127,17.2636,6.6533,14.8727,22.4746-.9897,6.5497-5.835,5.264-9.818,5.2874-32.4238,.19-64.8486,.2242-97.2731,.3135-4.2872,.0118-8.5758,.0104-12.8611,.1175-4.2252,.1056-6.6629-1.5398-6.4221-6.0748,.0141-.2661-.0206-.5344-.0185-.8017,.1693-20.829-2.4616-17.2976,16.0984-21.3232,5.9617-1.2931,8.4159-3.7312,8.3714-10.1475-.2722-39.3041-.1782-78.611-.1273-117.9168,.008-6.1971-.7181-12.2859-2.1691-18.2638-3.2924-13.5647-11.7202-19.6606-25.7512-18.7824-12.4001,.7761-23.1901,5.9228-33.4739,12.4253-3.9807,2.5171-5.5966,5.9474-5.5711,10.7362,.2112,39.5745,.2225,79.1501,.3814,118.725,.0139,3.4545,.799,6.8991,.9737,10.361,.6321,12.5283,.6055,12.4454,13.4587,14.5492,3.7976,.6216,9.1213,.0083,10.209,4.6784,1.4994,6.4385,1.8155,13.3181-.4028,19.7539-.8806,2.5549-4.1089,2.0705-6.4767,2.0742-38.589,.0613-77.1783,.0253-115.7668,.1891-5.4213,.023-8.1278-1.8086-7.6046-7.4123,.0247-.2647-.0106-.5344-.0087-.8018,.1305-18.351-1.8118-15.8837,14.9359-18.9191,8.4785-1.5367,11.265-4.8988,11.1514-13.68-.54-41.7059-.3201-83.4215-.3811-125.1336-.0039-2.6735-.1826-5.3486-.1298-8.02,.1514-7.6532-3.1382-12.0352-11.2061-12.1735-2.134-.0366-4.278-.3238-6.3901-.6643-13.2719-2.14-13.0825-2.1545-13.0008-15.5142,.0304-4.9664,1.5183-7.7974,6.4831-9.4622,28.1782-9.449,56.2471-19.2223,84.3976-28.7545,7.787-2.6368,13.8918,1.3682,14.7998,9.4146,.6285,5.5697,1.038,11.1638,1.5998,16.7415,.2605,2.5854-.9259,6.18,1.7259,7.3954,3.0224,1.3854,4.186-2.496,6.0152-4.1432,15.0689-13.5691,31.1842-25.276,51.5552-29.6137,14.6731-3.1244,29.2196-2.6592,43.6282,1.6395,15.773,4.7057,27.1218,14.6387,34.6821,29.0755q4.2093,8.038,10.4344,1.0171c20.075-22.6569,44.7541-35.0528,75.5695-34.3742,36.7561,.8094,59.033,19.4805,65.708,55.5835,2.8302,15.3077,3.2192,30.7918,3.1707,46.3043-.0417,13.3702-.0086,26.7405-.0086,40.1108,.0843,0,.1687,0,.253,.0001Z" style="fill: #6a76ff;"/>
  <path d="M1521.8282,436.9641c-17.9804,18.4817-38.4864,26.9442-62.1655,28.4251-38.6033,2.4142-73.4198-16.9521-89.4377-53.173-20.8741-47.2018-21.2479-95.0649,3.1423-141.4384,21.6155-41.0975,66.409-61.9679,110.7839-53.0504,13.7446,2.7621,25.2158,9.809,35.3029,19.1044,2.3855-1.5859,1.6368-3.6536,1.6354-5.3707-.019-22.9879-.2944-45.9772-.0836-68.9624,.0525-5.7245-1.9201-8.3661-7.5063-8.9252-5.8508-.5856-11.6481-1.932-17.5026-2.1954-6.9253-.3116-9.5654-3.6115-9.0415-10.1982,.1901-2.3911,.1584-4.8157,.0231-7.2134-.2577-4.5632,1.9263-6.6979,6.3288-7.6354,30.6205-6.5204,61.1941-13.26,91.8175-19.7663,8.826-1.8752,13.9115,2.392,13.6393,11.487-1.167,38.9962-1.8389,77.992-1.4588,117.01,.5935,60.9221,1.0963,121.8462,1.2206,182.7702,.0165,8.0609,2.439,11.2616,10.4799,12.4364,12.939,1.8904,17.2975,10.4871,13.2514,23.3395-1.02,3.2398-3.266,3.8548-6.1018,4.0258-27.2388,1.643-54.4864,3.1657-81.708,5.0583-6.4842,.4508-9.3359-2.028-10.0089-8.1817-.5737-5.2468-1.5364-10.4511-2.6103-17.546Zm-2.5551-97.0969c-.081,0-.1618,0-.2428,0,0-21.3565-.2173-42.7165,.1339-64.0673,.1037-6.3073-2.3559-9.7003-7.7474-12.4405-23.6879-12.0395-52.0365-.608-63.0164,25.9868-9.0896,22.016-10.0696,45.151-8.0526,68.4849,1.2013,13.8973,4.289,27.4233,11.16,39.7938,12.1706,21.9116,38.0583,29.4941,60.0075,17.988,5.7147-2.9957,7.9855-6.8077,7.8818-13.281-.3333-20.8169-.1239-41.6424-.1239-62.4647Z" style="fill: #6a76ff;"/>
  <path d="M1814.1436,425.6124c-6.3474,5.5539-12.4072,11.1019-18.7247,16.3399-22.5762,18.7184-48.3939,25.86-77.2766,20.339-22.1553-4.235-36.7083-17.7247-44.3079-38.7615-4.6779-12.9485-6.7615-26.3863-6.7356-40.1182,.0665-35.2966,.1808-70.5933,.404-105.8892,.1119-17.7185,.2379-17.7177-17.5593-21.6551-8.7055-1.926-13.6871-14.6593-8.7846-22.4126,1.4886-2.3543,3.9105-2.5111,6.3078-2.8637,28.3248-4.1663,56.6373-8.4174,84.9737-12.5039,11.538-1.664,16.2989,2.2787,15.7557,13.7175-2.3218,48.8988-1.4227,97.8196-1.4408,146.7359-.0024,6.4857,.7548,12.8177,2.5758,18.9876,4.2229,14.3091,15.2365,20.287,29.8461,16.7191,12.1096-2.9574,21.3391-10.8947,31.3175-17.5356,3.2803-2.1832,3.191-5.8809,3.3158-9.4209,1.4047-39.8117,1.0298-79.6398,1.334-119.4625,.0534-6.9994-1.8991-10.6857-9.2246-10.7423-1.8359-.0142-3.6674-.7053-5.5002-1.0889-13.1077-2.7432-14.946-5.7449-12.8137-19.0719,.9259-5.7879,5.5376-5.2798,9.1141-5.9003,17.4003-3.0184,34.8646-5.6686,52.3021-8.474,10.04-1.6153,20.0524-3.4137,30.1135-4.8824,11.0688-1.6157,15.7628,2.39,15.3268,13.2548-2.4452,60.9333-.8105,121.8912-1.2174,182.8363-.0838,12.5584,.011,12.5591,12.2827,15.2243,12.8311,2.7867,16.9643,10.2731,13.2496,23.442-.9813,3.4791-3.441,3.6421-6.1436,3.8282-12.5438,.864-25.0817,1.8476-37.636,2.5238-16.3077,.8785-32.6337,1.4217-48.9422,2.2919-5.2283,.279-8.0506-1.2936-8.1633-7.0045-.1156-5.8599-.8692-11.7063-1.3105-17.5612-.2738-3.6332,.1013-7.4051-2.4384-10.8916Z" style="fill: #6a76ff;"/>
  <path d="M1307.8058,357.1269c0,17.3816-.0024,34.7633,.0026,52.145,.0007,2.4065-.0752,4.8203,.0808,7.218,.3242,4.982,1.3593,9.6644,6.7971,11.6537,5.055,1.8493,9.3572-.245,12.0587-4.0668,5.6741-8.0272,10.2326-2.7153,15.3291,.431,6.2232,3.8419,2.1815,7.8939,.2601,11.5979-10.285,19.8264-27.6052,28.2657-49.1154,29.4374-7.4777,.4073-14.9565,.2411-22.4045-1.2334-15.621-3.0925-28.1555-10.5982-35.1101-25.2278-3.0894-6.4989-4.9956-5.4432-9.1218-1.0734-12.5218,13.261-26.8173,23.7515-45.4242,27.0284-22.9118,4.0352-44.3748,.7741-63.3619-13.1564-11.6522-8.5489-17.1588-21.1566-19.1485-35.0214-3.1886-22.2209-.072-43.1786,18.1155-58.548,12.2705-10.3693,26.5975-17.8185,41.6794-23.7485,20.0026-7.8648,40.7908-13.0658,61.4879-18.537,6.2516-1.6526,9.0196-4.2722,8.6479-10.9359-.6534-11.7154,.4461-23.499-1.9834-35.1527-3.6137-17.3334-12.7116-25.0864-30.6769-25.6677-16.7223-.541-16.6774-.5348-18.9046,15.5205-1.3892,10.0131-1.3904,20.2543-5.656,29.7784-6.4455,14.3916-16.8129,21.081-33.7611,20.6082-13.6747-.3815-24.6799-5.0648-31.1236-18.5344-4.4166-9.2325,4.0661-32.658,11.9082-40.6075,22.1863-22.4904,49.9774-30.8094,80.4492-33.4182,15.8456-1.3566,31.5422-1.4297,47.1766,1.4579,36.5604,6.7524,56.9686,29.6534,60.2545,66.7321,1.0643,12.0099,1.4656,23.9926,1.4033,36.0232-.0609,11.7656-.0132,23.5318-.0132,35.2977h.1543Zm-78.2242,19.5466c0-10.6684-.2762-21.3466,.1039-32.0015,.2272-6.369-2.2937-7.3677-7.6089-5.4298-5.7671,2.1026-11.7215,3.7384-17.3727,6.1046-17.2519,7.2237-28.0882,19.7413-31.4806,38.438-4.8513,26.7364,8.9904,43.5391,33.9479,40.9225,6.2616-.6564,11.6501-3.6452,17.1842-6.3204,3.864-1.8678,5.354-4.6513,5.2809-8.9092-.1877-10.9319-.0627-21.8691-.0546-32.8042Z" style="fill: #6a76ff;"/>
  <path d="M530.3734,274.586c-38.588-3.5177-76.8123,5.0204-115.3678,3.413-17.9463-.7482-17.8632-.2644-16.8099-17.9994,.2437-4.104,1.5101-6.3774,5.824-7.0731,5.0342-.8119,10.0352-1.5937,15.147-1.4475,23.2495,.6646,46.5916,1.1841,69.751,.9019,32.8397-.4001,65.7945,.9171,98.6058-2.1117,5.5859-.5156,11.0894-.2293,11.451,7.5462,.1429,3.0734,2.3048,4.5452,4.7704,5.8946,2.3457,1.2838,5.0265,2.8756,3.9157,6.1238-1.1815,3.4552-4.6001,3.0798-7.4873,3.3369-21.8962,1.9491-43.8497,1.2662-65.785,1.4141-1.3383,.009-2.6766,.0012-4.0149,.0012Z" style="fill: #6a76ff;"/>
  <path d="M594.2846,230.1873c-28.6462-2.2068-56.0911,.8265-83.5928-1.6467-30.4438-2.7378-60.7666,3.3491-91.2604,3.2201-6.476-.0274-10.5245-5.2354-16.6099-4.6913-.3554,.0318-1.0023-1.1641-1.2142-1.8773-1.5583-5.2445,7.4206-17.1651,12.7297-17.6514,53.6451-4.9134,107.4097-1.1085,161.1032-2.3084,11.5837-.2589,11.5737-.0803,14.0027,11.4657,.9116,4.3335,1.9207,8.6455,4.8417,13.4892Z" style="fill: #6a76ff;"/>
  <path d="M495.1915,297.8353c28.8953,0,57.7906,.0034,86.6859-.009,1.6035-.0007,3.2176-.0369,4.8085-.2168q11.5391-1.305,12.7782,10.6097c.6994,6.7243-2.7342,9.3412-12.0808,10.0042-34.4706,2.4453-69.0312-.3228-103.4797,1.6951-24.0714,1.41-48.122,1.3657-72.1918,1.2156-12.3904-.0773-17.7968-8.6156-13.0698-20.0784,1.6619-4.03,5.2308-3.1196,8.2545-3.1273,29.4314-.0759,58.8632-.0456,88.2948-.0456,0-.0158,0-.0316,0-.0474Z" style="fill: #6a76ff;"/>
  <path d="M105.3891,298.0157c29.4492,.0074,58.8984,.0143,88.3476,.0013,5.635-.0025,11.3861-1.1205,11.1317,7.9944-.3166,11.348-.2691,11.5218-10.3897,12.3518-22.7332,1.8645-45.4846,1.0523-68.2283,.9118-20.902-.1292-41.6869,1.9633-62.5255,2.7096-16.2374,.5814-32.5687-.7375-48.8235-1.7617-5.1398-.3239-11.588-1.131-8.7105-9.5728,.2029-.5954-.2994-1.4747-.5768-2.1816-2.8641-7.2978-1.232-10.2138,6.6001-10.3488,14.722-.2538,29.4511-.1033,44.1772-.1097,16.3326-.0071,32.6651-.0016,48.9977,.0058Z" style="fill: #6a76ff;"/>
  <path d="M118.4901,205.271c26.7919,0,47.4035-.0608,68.0146,.0243,11.2266,.0463,17.4206,10.787,12.4283,21.0631-1.3401,2.7585-3.4658,1.8347-5.4798,1.8415-12.5804,.0424-25.1699,.3994-37.7396,.0494-43.9074-1.2222-87.6904,2.0951-131.5314,3.2542-10.427,.2756-10.4301,.1572-10.4759-9.9249-.0492-10.8266,3.8481-14.4888,14.664-14.8779,32.0922-1.1544,64.1762-2.5288,90.1197-1.4297Z" style="fill: #6a76ff;"/>
  <path d="M261.8849,456.0804c0-29.1051-.0363-58.2103,.05-87.3152,.0098-3.3132-1.0254-7.9386,3.107-9.0803,5.3351-1.4739,11.3314-2.0235,16.4688,.5215,3.2005,1.5855,1.9636,5.795,1.9678,8.8938,.0531,38.4508-.1141,76.9025,.0812,115.3523,.0935,18.4063,.8462,36.8092,1.2686,55.2143,.0551,2.4002,.078,4.8204-.1587,7.2042-.5435,5.476-1.4975,11.2742-8.4092,11.617-8.1153,.4027-13.8462-4.7157-14.1565-11.8934-.2881-6.6644-.1557-13.348-.1594-20.0232-.0131-23.497-.0051-46.9939-.0051-70.4909h-.0546Z" style="fill: #6a76ff;"/>
  <path d="M308.5186,99.4762c0-29.3981-.0587-58.7965,.0756-88.1941,.0165-3.6037-1.8101-8.7546,4.2372-9.5804,7.4863-1.0224,16.6089,4.2395,17.1986,9.5084,.1774,1.585,.0607,3.2037,.0628,4.8071,.0771,58.7948,.0979,117.5899,.3365,176.3841,.0182,4.4791-1.2444,6.5495-5.687,6.553-2.4101,.0019-4.8296-.093-7.2285,.0805-6.5227,.4717-9.0428-2.4128-8.9966-8.9602,.1754-24.853,.0049-49.7084-.0326-74.563-.0081-5.3451-.0012-10.6903-.0012-16.0354h.0351Z" style="fill: #6a76ff;"/>
  <path d="M308.5003,457.3097c.0068-28.8802,.0064-57.7603,.007-86.6404,.0002-10.4472,9.697-16.0807,18.9846-11.0294,3.6996,2.012,2.5516,5.5803,2.5532,8.6001,.0195,37.9725-.0929,75.9451-.0959,113.9177-.0017,20.5907,.1923,41.1813,.195,61.772,.0013,9.4928-10.1785,15.5095-18.4311,10.9125-4.0769-2.2709-3.1753-6.4641-3.1833-10.0886-.0645-29.1479-.0361-58.2959-.0294-87.4439Z" style="fill: #6a76ff;"/>
  <path d="M214.9535,454.9074c0-23.5028-.0225-47.0056,.0098-70.5084,.0153-11.1641,2.8184-11.1707,13.8692-10.5019,9.2799,.5616,7.7753,4.9035,8.2248,10.2606,2.9079,34.6531,.9704,69.3683,1.2712,104.0505,.1182,13.6297,2.9218,27.0916,1.8157,40.7509-.4753,5.8691-.1538,14.7713-4.6889,15.8811-4.9059,1.2004-11.8139-3.4836-17.0872-6.805-3.7657-2.3719-3.433-7.5213-3.436-11.8184-.0161-23.7698-.0077-47.5395-.0077-71.3094h.029Z" style="fill: #6a76ff;"/>
  <path d="M238.4729,102.214c.0108,24.5532,.0568,49.1065-.0298,73.6594-.0164,4.6548,.9318,10.452-6.4887,10.4172-14.6667-.0688-16.9015-1.5316-16.9102-10.6427-.0399-41.8999-.0518-83.7999,.0025-125.6998,.0083-6.4,.1045-12.8291,.7128-19.1922,.9104-9.523,8.6113-15.1418,17.8783-13.6702,3.5623,.5657,4.0845,3.3227,4.2262,5.9006,.3948,7.1862,.548,14.392,.5743,21.5908,.0702,19.2121,.0239,38.4246,.0347,57.6369Z" style="fill: #6a76ff;"/>
  <path d="M141.5138,362.9795c-34.559-.4534-68.9978,2.1266-103.4529,4.1611-13.684,.808-20.8176-4.7448-20.9918-16.7744-.0841-5.8089,1.9707-8.7396,8.2271-9.3101,6.4812-.591,12.8464-.0112,19.2242,.3924,45.4873,2.8784,91.0163,.7517,136.521,1.3139,2.6769,.0331,5.3814-.1257,8.0238,.2013,4.6278,.5726,6.4395,2.4319,4.4108,7.6-4.6641,11.8818-4.5019,12.1834-17.415,12.3792-11.5133,.1746-23.0314,.0367-34.5473,.0367Z" style="fill: #6a76ff;"/>
  <path d="M529.8569,362.9435c-29.7751-2.0007-59.3169,3.4758-89.0399,2.8686-6.147-.1256-12.3412-.2795-18.4141-1.1291-8.65-1.21-14.371-12.2215-10.61-19.8145,1.7223-3.4771,5.1599-3.4904,8.3714-3.4685,11.5158,.0787,23.041,.0203,34.5442,.4762,35.8697,1.4214,71.7328,1.416,107.5941-.0818,6.7486-.2818,13.3768,.3202,19.9453,1.6838,3.0357,.6301,4.4753,1.7114,2.7483,5.5428-6.2201,13.7998-6.0242,13.8973-21.3939,13.9193-11.2485,.0162-22.497,.0032-33.7454,.0032Z" style="fill: #6a76ff;"/>
  <path d="M354.9789,457.0068c0-26.7375-.0542-53.4752,.0289-80.2124,.0298-9.586,.4689-8.9383,9.4449-6.0828,8.7756,2.7917,10.4364,8.1616,10.809,16.0813,2.2374,47.5618,.6843,95.1416,1.1176,142.7095,.0625,6.8612-4.4387,9.2144-9.376,11.426-3.4979,1.5668-5.7869,7.4954-9.9109,5.0827-4.0389-2.3629-1.98-7.891-2.0044-12.0005-.1525-25.6671-.0769-51.3356-.0769-77.0036h-.0319Z" style="fill: #6a76ff;"/>
  <path d="M354.8991,103.954c.0106-25.6218,.0821-51.2439-.045-76.865-.0281-5.6683,.4352-9.9074,7.878-9.977,7.0497-.0659,11.7374,1.0348,12.4629,9.5042,1.0501,12.2573,1.2711,24.4947,1.2526,36.7691-.0549,36.5643-.1001,73.1289,.0281,109.6928,.0235,6.7009-.4235,12.4802-9.0237,12.9844-.745,.0437-1.4784,.5936-2.1827,.9724-9.3698,5.0394-10.3207,4.4801-10.3564-7.0166-.0788-25.3546-.0244-50.7095-.0139-76.0643Z" style="fill: #6a76ff;"/>
  <path d="M92.8999,185.546c-11.534,0-27.5954-.0355-43.6564,.0283-3.4358,.0136-8.1243,1.3731-9.4541-2.1609-1.5004-3.9874-1.1377-9.1661,2.0605-12.7463,3.9864-4.4625,8.9102-7.7726,15.3785-7.3881,22.1722,1.318,44.358-.3286,66.5998,.8464,13.6536,.7213,27.6261-1.8845,41.4102,.6751,3.6533,.6784,10.7486-.0992,4.6999,7.2293-.2492,.3019-.1077,1.0166,0,1.5066,2.0026,9.1084,1.7256,8.9434-8.3203,9.9931-21.3764,2.2338-42.8124,.2888-68.7182,2.0165Z" style="fill: #6a76ff;"/>
  <path d="M482.3832,185.1332c-14.71,0-29.4201,.0509-44.1298-.0202-8.1002-.0392-6.8965-.6677-6.0046-8.2504,1.5862-13.4841,10.6687-13.4036,20.0755-13.5064,28.5673-.3124,57.1325-.502,85.6707-2.0713,3.7019-.2036,7.5345,.0977,11.1649,.848,7.4853,1.547,12.9247,13.1066,9.4751,19.6834-1.0425,1.9874-3.2471,1.4838-4.9943,1.8676-12.7248,2.7952-25.563-.2429-38.3739,.7357-10.9016,.8328-21.9179,.172-32.8834,.172,0,.1806,0,.3611,0,.5417Z" style="fill: #6a76ff;"/>
  <path d="M397.2855,454.8668c0-13.6092-.2025-27.223,.1081-40.8252,.1111-4.8656-.0523-10.3675,6.8884-11.8649,8.7796-1.8942,12.3691-.2533,13.0086,8.681,2.1712,30.3325,3.047,60.7243,2.415,91.1418-.0802,3.8614-1.6471,6.6932-5.9253,7.2748-3.6665,.4984-6.0437,3.2116-8.8512,5.1989-1.5286,1.082-1.7292,4.5828-4.7334,2.9595-2.3264-1.2571-1.3904-3.7526-1.6192-5.7985-2.1123-18.8841-1.1556-37.8393-1.2908-56.7673Z" style="fill: #6a76ff;"/>
  <path d="M194.642,99.5142c0,13.5949,.2703,27.1984-.1596,40.7797-.1344,4.2476,1.7389,10.6558-4.6973,11.9046-5.8892,1.1426-15.7689-7.2197-16.1908-12.7715-.4034-5.3084-.2401-10.6575-.4325-15.9849-.0958-2.6517,.3151-5.6681-.7938-7.8733-3.6645-7.287-3.6758-13.3108-.2014-21.4692,2.7484-6.4535-.4264-15.6161-1.5884-23.4848-1.8318-12.4044,2.0039-22.9889,10.4583-27.1846,7.324-3.6347,11.1138-2.15,12.6188,5.8387,3.1354,16.6428,.4092,33.5041,.9867,50.2454Z" style="fill: #6a76ff;"/>
  <path d="M419.7124,67.6724c0,20.5137,.0177,41.0275-.0174,61.5412-.0059,3.4588,.004,6.9469-.4134,10.3704-1.343,11.0168-5.7008,14.9579-16.3274,14.2683-4.8342-.3137-4.3935-4.7548-4.5184-8.0218-.5399-14.1138-1.0041-28.2343-1.1974-42.3564-.2008-14.6652-.1687-29.3362-.0255-44.0026,.0913-9.3518,8.4847-16.7476,17.5925-15.6744,3.0711,.3619,3.476,3.1235,3.5429,5.4733,.1745,6.1278,.0587,12.2638,.0587,18.3966l1.3054,.0054Z" style="fill: #6a76ff;"/>
  <path d="M194.6395,457.298c0,16.3037-.0457,32.6076,.0231,48.911,.0265,6.2799-1.4978,7.8625-8.0149,4.8671-9.8616-4.5323-14.9194-9.5153-13.9539-22.0259,1.5978-20.7035,.1992-41.6473-.1434-62.4864-.2271-13.8154,2.3025-18.3588,13.3456-22.4832,7.8711-2.9397,8.9403-2.3328,8.9945,5.909,.1037,15.7688,.0302,31.5388,.0302,47.3083-.0937,0-.1874,0-.2812,0Z" style="fill: #6a76ff;"/>
  <path d="M112.4948,406.2924c-14.1634,.4519-28.3639-.9232-42.4995,1.3767-9.7482,1.586-17.1989-2.5172-22.4467-10.7524-4.3425-6.8146-2.0556-12.2065,5.8704-11.6617,32.6436,2.2438,65.3138,.8442,97.9605,1.5354,3.9281,.0832,10.2944-.0759,10.203,5.3443-.0939,5.5685-2.5243,11.4617-9.8146,12.8262-13.044,2.4415-26.2011,.3857-39.273,1.3316Z" style="fill: #6a76ff;"/>
  <path d="M495.917,406.1219c-13.9025,0-27.8101-.2228-41.7054,.0944-6.9113,.1578-11.1026-3.1592-13.947-8.7876-3.8988-7.7147-.7751-12.8113,7.8676-12.1293,30.1788,2.3815,60.3948,.7943,90.5881,1.2899,5.0116,.0823,11.5362-1.7633,13.6255,4.8683,1.5672,4.9743-8.5606,14.7727-14.7432,14.8438-13.8935,.1598-27.7901,.0501-41.6854,.0501,0-.0765,0-.153-.0001-.2295Z" style="fill: #6a76ff;"/>
</svg>